<svg xmlns="http://www.w3.org/2000/svg" width="1600" height="2400" viewBox="0 0 1600 2400">
  <defs>
    <linearGradient id="bg" x1="0" y1="0" x2="1" y2="1"><stop stop-color="#071426"/><stop offset=".55" stop-color="#102b49"/><stop offset="1" stop-color="#07111e"/></linearGradient>
    <radialGradient id="glow"><stop stop-color="#d5a94e" stop-opacity=".32"/><stop offset="1" stop-color="#d5a94e" stop-opacity="0"/></radialGradient>
  </defs>
  <rect width="1600" height="2400" fill="url(#bg)"/>
  <circle cx="1310" cy="450" r="650" fill="url(#glow)"/>
  <g fill="none" stroke="#d5a94e" stroke-opacity=".18">
    <path d="M-80 1900 C340 1510 480 1810 820 1370 S1350 1120 1710 520" stroke-width="8"/>
    <path d="M-120 2070 C320 1680 600 1930 900 1510 S1370 1270 1690 790" stroke-width="2"/>
  </g>
  <g fill="#d5a94e"><circle cx="205" cy="1740" r="13"/><circle cx="655" cy="1590" r="13"/><circle cx="1040" cy="1215" r="13"/><circle cx="1372" cy="868" r="13"/></g>
  <text x="150" y="190" fill="#d5a94e" font-family="PingFang SC, sans-serif" font-size="34" letter-spacing="12">一部跨越二十六年的真实创业纪实</text>
  <rect x="150" y="275" width="120" height="9" fill="#d5a94e"/>
  <text x="150" y="650" fill="#ffffff" font-family="PingFang SC, sans-serif" font-size="145" font-weight="700">卡若的</text>
  <text x="150" y="840" fill="#ffffff" font-family="PingFang SC, sans-serif" font-size="145" font-weight="700">IP财富旅程</text>
  <text x="158" y="950" fill="#bfcbd8" font-family="PingFang SC, sans-serif" font-size="42" letter-spacing="4">KARUO'S JOURNEY OF IP &amp; WEALTH</text>
  <line x1="150" y1="1060" x2="1450" y2="1060" stroke="#d5a94e" stroke-opacity=".55"/>
  <text x="150" y="1165" fill="#f4f6f8" font-family="PingFang SC, sans-serif" font-size="53">从互联网启蒙，到内容、私域与AI的商业进化</text>
  <text x="150" y="2040" fill="#9fadc0" font-family="PingFang SC, sans-serif" font-size="32" letter-spacing="6">互联网  ·  游戏创业  ·  私域经营  ·  AI时代</text>
  <text x="150" y="2210" fill="#d5a94e" font-family="PingFang SC, sans-serif" font-size="52" font-weight="600">卡若  著</text>
</svg>
